<?xml version="1.0" encoding="UTF-8" standalone="no"?>
<!-- Created with Inkscape (http://www.inkscape.org/) -->

<svg
   width="210mm"
   height="297mm"
   version="1.0"
   xml:space="preserve"
   id="svg374"
   sodipodi:docname="International_Morse_Code.svg"
   inkscape:version="1.1.1 (3bf5ae0d25, 2021-09-20)"
   xmlns:inkscape="http://www.inkscape.org/namespaces/inkscape"
   xmlns:sodipodi="http://sodipodi.sourceforge.net/DTD/sodipodi-0.dtd"
   xmlns="http://www.w3.org/2000/svg"
   xmlns:svg="http://www.w3.org/2000/svg"
   xmlns:rdf="http://www.w3.org/1999/02/22-rdf-syntax-ns#"
   xmlns:cc="http://creativecommons.org/ns#"
   xmlns:dc="http://purl.org/dc/elements/1.1/"><sodipodi:namedview
   id="namedview376"
   pagecolor="#505050"
   bordercolor="#ffffff"
   borderopacity="1"
   inkscape:pageshadow="0"
   inkscape:pageopacity="0"
   inkscape:pagecheckerboard="1"
   showgrid="false"
   units="mm"
   inkscape:zoom="0.70996528"
   inkscape:cx="319.02969"
   inkscape:cy="898.6355"
   inkscape:window-width="1920"
   inkscape:window-height="1002"
   inkscape:window-x="-8"
   inkscape:window-y="-8"
   inkscape:window-maximized="1"
   inkscape:current-layer="svg374"
   inkscape:document-units="mm" />
<defs
   id="defs4">
<style
   id="style2">
text { font-family: 'DejaVu Sans', Sans, sans-serif; font-size:18px; fill: #000000; }
tspan { stroke-width: .9217 }
rect { fill: #000000; }
circle { fill: #000000; }
</style>
</defs>
<metadata
   id="metadata6"><rdf:RDF><cc:Work
       rdf:about="">
<dc:format>image/svg+xml</dc:format>
<dc:type
   rdf:resource="http://purl.org/dc/dcmitype/StillImage" />
</cc:Work></rdf:RDF></metadata>


















































































































































































<g
   id="g1376"
   transform="matrix(1.9353893,0,0,1.9353893,-3.9434845,99.73728)"><text
     x="67.239998"
     y="24.529999"
     style="font-size:22px"
     id="text8">International Morse Code</text><text
     x="46.919998"
     y="48.189999"
     style="font-size:10.14px;line-height:125%"
     xml:space="preserve"
     id="text20"> <tspan
   x="46.919998"
   y="48.189999"
   id="tspan10">1. The length of a dot is one unit.</tspan> <tspan
   x="46.919998"
   y="60.860001"
   id="tspan12">2. A dash is three units.</tspan> <tspan
   x="46.919998"
   y="73.540001"
   id="tspan14">3. The space between parts of the same letter is one unit.</tspan> <tspan
   x="46.919998"
   y="86.209999"
   id="tspan16">4. The space between letters is three units.</tspan> <tspan
   x="46.919998"
   y="98.879997"
   id="tspan18">5. The space between words is seven units.</tspan></text><circle
     cx="231.2"
     cy="140.10001"
     id="circle22"
     r="4.6090002" /><rect
     x="263.5"
     y="135.5"
     width="27.65"
     height="9.217"
     id="rect24" /><circle
     cx="249.60001"
     cy="140.10001"
     id="circle26"
     r="4.6090002" /><circle
     cx="231.2"
     cy="158.5"
     id="circle28"
     r="4.6090002" /><circle
     cx="249.60001"
     cy="158.5"
     id="circle30"
     r="4.6090002" /><circle
     cx="268.10001"
     cy="158.5"
     id="circle32"
     r="4.6090002" /><rect
     x="281.89999"
     y="153.89999"
     width="27.65"
     height="9.217"
     id="rect34" /><circle
     cx="231.2"
     cy="176.89999"
     id="circle36"
     r="4.6090002" /><rect
     x="245"
     y="172.3"
     width="27.65"
     height="9.217"
     id="rect38" /><rect
     x="281.89999"
     y="172.3"
     width="27.65"
     height="9.217"
     id="rect40" /><rect
     x="226.60001"
     y="190.8"
     width="27.65"
     height="9.217"
     id="rect42" /><circle
     cx="268.10001"
     cy="195.39999"
     id="circle44"
     r="4.6090002" /><circle
     cx="286.5"
     cy="195.39999"
     id="circle46"
     r="4.6090002" /><rect
     x="300.29999"
     y="190.8"
     width="27.65"
     height="9.217"
     id="rect48" /><rect
     x="226.60001"
     y="209.2"
     width="27.65"
     height="9.217"
     id="rect50" /><rect
     x="281.89999"
     y="209.2"
     width="27.65"
     height="9.217"
     id="rect52" /><rect
     x="318.79999"
     y="209.2"
     width="27.65"
     height="9.217"
     id="rect54" /><circle
     cx="268.10001"
     cy="213.8"
     id="circle56"
     r="4.6090002" /><rect
     x="226.60001"
     y="227.60001"
     width="27.65"
     height="9.217"
     id="rect58" /><rect
     x="263.5"
     y="227.60001"
     width="27.65"
     height="9.217"
     id="rect60" /><circle
     cx="304.89999"
     cy="232.2"
     id="circle62"
     r="4.6090002" /><circle
     cx="323.39999"
     cy="232.2"
     id="circle64"
     r="4.6090002" /><text
     x="207.12"
     y="144.67"
     id="text66">U</text><text
     x="207.64"
     y="163.10001"
     id="text68">V</text><text
     x="205.05"
     y="181.31"
     id="text70">W</text><text
     x="207.63"
     y="199.97"
     id="text72">X</text><text
     x="207.66"
     y="218.41"
     id="text74">Y</text><text
     x="208.17"
     y="236.84"
     id="text76">Z</text><circle
     cx="37.650002"
     cy="140.10001"
     id="circle78"
     r="4.6090002" /><rect
     x="51.490002"
     y="135.5"
     width="27.65"
     height="9.217"
     id="rect80" /><circle
     cx="74.760002"
     cy="158.5"
     id="circle82"
     r="4.6090002" /><circle
     cx="92.949997"
     cy="158.8"
     id="circle84"
     r="4.6090002" /><circle
     cx="111.4"
     cy="158.5"
     id="circle86"
     r="4.6090002" /><rect
     x="33.049999"
     y="172.3"
     width="27.65"
     height="9.217"
     id="rect88" /><circle
     cx="74.489998"
     cy="176.89999"
     id="circle90"
     r="4.6090002" /><rect
     x="88.360001"
     y="172.3"
     width="27.65"
     height="9.217"
     id="rect92" /><circle
     cx="129.89999"
     cy="176.89999"
     id="circle94"
     r="4.6090002" /><rect
     x="33.049999"
     y="190.8"
     width="27.65"
     height="9.217"
     id="rect96" /><circle
     cx="74.43"
     cy="195.39999"
     id="circle98"
     r="4.6090002" /><circle
     cx="92.949997"
     cy="195.60001"
     id="circle100"
     r="4.6090002" /><circle
     cx="37.650002"
     cy="213.8"
     id="circle102"
     r="4.6090002" /><circle
     cx="37.650002"
     cy="232.2"
     id="circle104"
     r="4.6090002" /><circle
     cx="56.09"
     cy="232.2"
     id="circle106"
     r="4.6090002" /><rect
     x="69.919998"
     y="227.60001"
     width="27.65"
     height="9.217"
     id="rect108" /><circle
     cx="111.4"
     cy="232.2"
     id="circle110"
     r="4.6090002" /><rect
     x="33.049999"
     y="246.10001"
     width="27.65"
     height="9.217"
     id="rect112" /><rect
     x="69.919998"
     y="246.10001"
     width="27.65"
     height="9.217"
     id="rect114" /><circle
     cx="111.4"
     cy="250.7"
     id="circle116"
     r="4.6090002" /><circle
     cx="37.650002"
     cy="269.10001"
     id="circle118"
     r="4.6090002" /><circle
     cx="56.09"
     cy="269.10001"
     id="circle120"
     r="4.6090002" /><circle
     cx="74.519997"
     cy="269.10001"
     id="circle122"
     r="4.6090002" /><circle
     cx="92.949997"
     cy="269.10001"
     id="circle124"
     r="4.6090002" /><circle
     cx="37.650002"
     cy="287.5"
     id="circle126"
     r="4.6090002" /><circle
     cx="56.09"
     cy="287.5"
     id="circle128"
     r="4.6090002" /><circle
     cx="37.650002"
     cy="306"
     id="circle130"
     r="4.6090002" /><rect
     x="51.490002"
     y="301.39999"
     width="27.65"
     height="9.217"
     id="rect132" /><rect
     x="88.360001"
     y="301.39999"
     width="27.65"
     height="9.217"
     id="rect134" /><rect
     x="125.2"
     y="301.39999"
     width="27.65"
     height="9.217"
     id="rect136" /><rect
     x="33.049999"
     y="319.79999"
     width="27.65"
     height="9.217"
     id="rect138" /><circle
     cx="74.519997"
     cy="324.39999"
     id="circle140"
     r="4.6090002" /><rect
     x="88.360001"
     y="319.79999"
     width="27.65"
     height="9.217"
     id="rect142" /><circle
     cx="37.650002"
     cy="342.79999"
     id="circle144"
     r="4.6090002" /><rect
     x="51.490002"
     y="338.20001"
     width="27.65"
     height="9.217"
     id="rect146" /><circle
     cx="92.949997"
     cy="342.79999"
     id="circle148"
     r="4.6090002" /><circle
     cx="111.4"
     cy="342.79999"
     id="circle150"
     r="4.6090002" /><rect
     x="33.049999"
     y="356.70001"
     width="27.65"
     height="9.217"
     id="rect152" /><rect
     x="69.919998"
     y="356.70001"
     width="27.65"
     height="9.217"
     id="rect154" /><rect
     x="33.049999"
     y="375.10001"
     width="27.65"
     height="9.217"
     id="rect156" /><circle
     cx="74.519997"
     cy="379.70001"
     id="circle158"
     r="4.6090002" /><rect
     x="33.049999"
     y="393.5"
     width="27.65"
     height="9.217"
     id="rect160" /><rect
     x="69.919998"
     y="393.5"
     width="27.65"
     height="9.217"
     id="rect162" /><rect
     x="106.8"
     y="393.5"
     width="27.65"
     height="9.217"
     id="rect164" /><circle
     cx="37.650002"
     cy="416.60001"
     id="circle166"
     r="4.6090002" /><rect
     x="51.490002"
     y="412"
     width="27.65"
     height="9.217"
     id="rect168" /><rect
     x="88.360001"
     y="412"
     width="27.65"
     height="9.217"
     id="rect170" /><circle
     cx="129.8"
     cy="416.60001"
     id="circle172"
     r="4.6090002" /><rect
     x="33.049999"
     y="430.39999"
     width="27.65"
     height="9.217"
     id="rect174" /><rect
     x="69.919998"
     y="430.39999"
     width="27.65"
     height="9.217"
     id="rect176" /><circle
     cx="111.4"
     cy="435"
     id="circle178"
     r="4.6090002" /><rect
     x="125.2"
     y="430.39999"
     width="27.65"
     height="9.217"
     id="rect180" /><circle
     cx="37.650002"
     cy="453.5"
     id="circle182"
     r="4.6090002" /><rect
     x="51.490002"
     y="448.79999"
     width="27.65"
     height="9.217"
     id="rect184" /><circle
     cx="92.949997"
     cy="453.5"
     id="circle186"
     r="4.6090002" /><circle
     cx="74.519997"
     cy="471.89999"
     id="circle188"
     r="4.6090002" /><circle
     cx="56.09"
     cy="471.89999"
     id="circle190"
     r="4.6090002" /><circle
     cx="37.650002"
     cy="471.89999"
     id="circle192"
     r="4.6090002" /><rect
     x="33.049999"
     y="485.70001"
     width="27.65"
     height="9.217"
     id="rect194" /><text
     x="13.32"
     y="144.67"
     id="text196">A</text><text
     x="13.13"
     y="163.10001"
     id="text198">B</text><text
     x="12.71"
     y="181.31"
     id="text200">C</text><text
     x="12.59"
     y="199.97"
     id="text202">D</text><text
     x="13.08"
     y="218.41"
     id="text204">E</text><text
     x="13.5"
     y="236.84"
     id="text206">F</text><text
     x="12.38"
     y="255.05"
     id="text208">G</text><text
     x="12.81"
     y="273.70999"
     id="text210">H</text><text
     x="16.870001"
     y="292.14001"
     id="text212">I</text><text
     x="15.32"
     y="310.57999"
     id="text214">J</text><text
     x="12.66"
     y="329.01001"
     id="text216">K</text><text
     x="13.99"
     y="347.45001"
     id="text218">L</text><text
     x="11.8"
     y="365.88"
     id="text220">M</text><text
     x="12.86"
     y="384.32001"
     id="text222">N</text><text
     x="12.26"
     y="402.75"
     id="text224">O</text><text
     x="12.24"
     y="439.62"
     id="text226">Q</text><text
     x="13.01"
     y="421.17999"
     id="text228">P</text><text
     x="12.2"
     y="458.04999"
     id="text230">R</text><text
     x="13.38"
     y="476.48999"
     id="text232">S</text><text
     x="13.8"
     y="494.92001"
     id="text234">T</text><rect
     x="33.049999"
     y="153.89999"
     width="27.65"
     height="9.217"
     id="rect236" /><rect
     x="245"
     y="319.60001"
     width="27.65"
     height="9.217"
     id="rect238" /><rect
     x="281.89999"
     y="319.60001"
     width="27.65"
     height="9.217"
     id="rect240" /><rect
     x="281.89999"
     y="319.60001"
     width="27.65"
     height="9.217"
     id="rect242" /><rect
     x="318.79999"
     y="319.60001"
     width="27.65"
     height="9.217"
     id="rect244" /><rect
     x="355.70001"
     y="319.60001"
     width="27.65"
     height="9.217"
     id="rect246" /><circle
     cx="231.2"
     cy="324.20001"
     id="circle248"
     r="4.6090002" /><circle
     cx="231.2"
     cy="342.60001"
     id="circle250"
     r="4.6090002" /><circle
     cx="249.60001"
     cy="342.60001"
     id="circle252"
     r="4.6090002" /><rect
     x="263.5"
     y="338"
     width="27.65"
     height="9.217"
     id="rect254" /><rect
     x="300.29999"
     y="338"
     width="27.65"
     height="9.217"
     id="rect256" /><rect
     x="337.20001"
     y="338"
     width="27.65"
     height="9.217"
     id="rect258" /><circle
     cx="231.2"
     cy="361.10001"
     id="circle260"
     r="4.6090002" /><circle
     cx="249.60001"
     cy="361.10001"
     id="circle262"
     r="4.6090002" /><circle
     cx="268.10001"
     cy="361.10001"
     id="circle264"
     r="4.6090002" /><rect
     x="281.89999"
     y="356.39999"
     width="27.65"
     height="9.217"
     id="rect266" /><rect
     x="318.79999"
     y="356.39999"
     width="27.65"
     height="9.217"
     id="rect268" /><circle
     cx="231.2"
     cy="379.5"
     id="circle270"
     r="4.6090002" /><circle
     cx="249.60001"
     cy="379.5"
     id="circle272"
     r="4.6090002" /><circle
     cx="268.10001"
     cy="379.5"
     id="circle274"
     r="4.6090002" /><circle
     cx="286.5"
     cy="379.5"
     id="circle276"
     r="4.6090002" /><rect
     x="300.29999"
     y="374.89999"
     width="27.65"
     height="9.217"
     id="rect278" /><circle
     cx="231.2"
     cy="397.89999"
     id="circle280"
     r="4.6090002" /><circle
     cx="249.60001"
     cy="397.89999"
     id="circle282"
     r="4.6090002" /><circle
     cx="268.10001"
     cy="397.89999"
     id="circle284"
     r="4.6090002" /><circle
     cx="286.5"
     cy="397.89999"
     id="circle286"
     r="4.6090002" /><circle
     cx="304.89999"
     cy="397.89999"
     id="circle288"
     r="4.6090002" /><circle
     cx="268.10001"
     cy="416.39999"
     id="circle290"
     r="4.6090002" /><circle
     cx="286.5"
     cy="416.39999"
     id="circle292"
     r="4.6090002" /><circle
     cx="304.89999"
     cy="416.39999"
     id="circle294"
     r="4.6090002" /><circle
     cx="323.39999"
     cy="416.39999"
     id="circle296"
     r="4.6090002" /><rect
     x="226.60001"
     y="411.70001"
     width="27.65"
     height="9.217"
     id="rect298" /><circle
     cx="231.2"
     cy="361.10001"
     id="circle300"
     r="4.6090002" /><circle
     cx="249.60001"
     cy="361.10001"
     id="circle302"
     r="4.6090002" /><circle
     cx="268.10001"
     cy="361.10001"
     id="circle304"
     r="4.6090002" /><rect
     x="281.89999"
     y="356.39999"
     width="27.65"
     height="9.217"
     id="rect306" /><rect
     x="318.79999"
     y="356.39999"
     width="27.65"
     height="9.217"
     id="rect308" /><circle
     cx="304.89999"
     cy="434.79999"
     id="circle310"
     r="4.6090002" /><circle
     cx="323.39999"
     cy="434.79999"
     id="circle312"
     r="4.6090002" /><circle
     cx="341.79999"
     cy="434.79999"
     id="circle314"
     r="4.6090002" /><rect
     x="226.60001"
     y="430.20001"
     width="27.65"
     height="9.217"
     id="rect316" /><rect
     x="263.5"
     y="430.20001"
     width="27.65"
     height="9.217"
     id="rect318" /><circle
     cx="341.79999"
     cy="453.20001"
     id="circle320"
     r="4.6090002" /><circle
     cx="360.29999"
     cy="453.20001"
     id="circle322"
     r="4.6090002" /><rect
     x="263.5"
     y="448.60001"
     width="27.65"
     height="9.217"
     id="rect324" /><rect
     x="300.29999"
     y="448.60001"
     width="27.65"
     height="9.217"
     id="rect326" /><rect
     x="226.60001"
     y="448.60001"
     width="27.65"
     height="9.217"
     id="rect328" /><rect
     x="226.60001"
     y="467"
     width="27.65"
     height="9.217"
     id="rect330" /><rect
     x="263.5"
     y="467"
     width="27.65"
     height="9.217"
     id="rect332" /><rect
     x="263.5"
     y="467"
     width="27.65"
     height="9.217"
     id="rect334" /><rect
     x="300.29999"
     y="467"
     width="27.65"
     height="9.217"
     id="rect336" /><rect
     x="337.20001"
     y="467"
     width="27.65"
     height="9.217"
     id="rect338" /><rect
     x="226.60001"
     y="485.5"
     width="27.65"
     height="9.217"
     id="rect340" /><circle
     cx="378.70001"
     cy="471.70001"
     id="circle342"
     r="4.6090002" /><rect
     x="263.5"
     y="485.5"
     width="27.65"
     height="9.217"
     id="rect344" /><rect
     x="300.29999"
     y="485.5"
     width="27.65"
     height="9.217"
     id="rect346" /><rect
     x="300.29999"
     y="485.5"
     width="27.65"
     height="9.217"
     id="rect348" /><rect
     x="337.20001"
     y="485.5"
     width="27.65"
     height="9.217"
     id="rect350" /><rect
     x="374.10001"
     y="485.5"
     width="27.65"
     height="9.217"
     id="rect352" /><text
     x="209.5"
     y="328.79001"
     id="text354">1</text><text
     x="209.03"
     y="347.22"
     id="text356">2</text><text
     x="208.84"
     y="365.42999"
     id="text358">3</text><text
     x="209.14"
     y="384.09"
     id="text360">4</text><text
     x="208.8"
     y="402.51999"
     id="text362">5</text><text
     x="208.89"
     y="420.95999"
     id="text364">6</text><text
     x="208.78999"
     y="439.17001"
     id="text366">7</text><text
     x="208.84"
     y="457.82001"
     id="text368">8</text><text
     x="208.83"
     y="476.26001"
     id="text370">9</text><text
     x="208.87"
     y="494.70001"
     id="text372">0</text></g>
</svg>
