<?xml version="1.0" encoding="UTF-8" standalone="no"?>
<!-- Created with Inkscape (http://www.inkscape.org/) -->

<svg
   width="210mm"
   height="297mm"
   viewBox="0 0 210 297"
   version="1.1"
   id="svg5"
   inkscape:version="1.2.2 (732a01da63, 2022-12-09)"
   sodipodi:docname="Push_button_cover.svg"
   inkscape:export-filename="Push_button_cover.png"
   inkscape:export-xdpi="96"
   inkscape:export-ydpi="96"
   xmlns:inkscape="http://www.inkscape.org/namespaces/inkscape"
   xmlns:sodipodi="http://sodipodi.sourceforge.net/DTD/sodipodi-0.dtd"
   xmlns="http://www.w3.org/2000/svg"
   xmlns:svg="http://www.w3.org/2000/svg">
  <sodipodi:namedview
     id="namedview7"
     pagecolor="#505050"
     bordercolor="#eeeeee"
     borderopacity="1"
     inkscape:showpageshadow="0"
     inkscape:pageopacity="0"
     inkscape:pagecheckerboard="0"
     inkscape:deskcolor="#505050"
     inkscape:document-units="mm"
     showgrid="false"
     inkscape:zoom="0.76791526"
     inkscape:cx="320.34785"
     inkscape:cy="352.90352"
     inkscape:window-width="1920"
     inkscape:window-height="1017"
     inkscape:window-x="1072"
     inkscape:window-y="177"
     inkscape:window-maximized="1"
     inkscape:current-layer="layer1" />
  <defs
     id="defs2" />
  <g
     inkscape:label="Layer 1"
     inkscape:groupmode="layer"
     id="layer1">
    <g
       id="g3911"
       transform="translate(-5.8573086,-27.219258)">
      <path
         sodipodi:type="star"
         style="fill:none;stroke:#000000;stroke-width:2;stroke-linecap:round;stroke-dasharray:none"
         id="path234"
         inkscape:flatsided="false"
         sodipodi:sides="6"
         sodipodi:cx="46.51392"
         sodipodi:cy="77.867752"
         sodipodi:r1="50.585209"
         sodipodi:r2="54.392696"
         sodipodi:arg1="0.46648046"
         sodipodi:arg2="0.99007924"
         inkscape:rounded="0.3"
         inkscape:randomized="0"
         d="m 91.694439,100.61823 c -3.699346,7.34658 -8.462381,18.21294 -15.339402,22.72559 -6.87702,4.51266 -18.741342,4.55708 -26.953346,5.02665 -8.212004,0.46956 -20.004059,1.77783 -27.350646,-1.92152 C 14.704458,122.74961 8.7338305,112.49701 4.221172,105.61999 -0.29148665,98.742971 -7.3205059,89.184886 -7.7900725,80.972882 -8.2596391,72.760878 -2.3659445,62.463865 1.3334009,55.117278 5.0327463,47.770691 9.7957814,36.904339 16.672802,32.39168 c 6.877021,-4.512658 18.741343,-4.557076 26.953347,-5.026642 8.212004,-0.469567 20.004058,-1.777833 27.350646,1.921512 7.346587,3.699346 13.317214,13.951941 17.829873,20.828962 4.512658,6.877021 11.541682,16.435106 12.011242,24.64711 0.46957,8.212004 -5.424126,18.509017 -9.123471,25.855608 z"
         transform="matrix(0.72106294,0.03904205,-0.03904205,0.72106294,27.49676,20.365113)" />
      <text
         xml:space="preserve"
         style="font-size:27.4479px;fill:#000000;fill-opacity:1;stroke:#000000;stroke-width:0.683331;stroke-linecap:round;stroke-dasharray:none"
         x="24.483669"
         y="86.128799"
         id="text2404"><tspan
           sodipodi:role="line"
           id="tspan2402"
           style="font-style:normal;font-variant:normal;font-weight:normal;font-stretch:normal;font-family:'Courier New';-inkscape-font-specification:'Courier New';fill:#000000;fill-opacity:1;stroke-width:0.683331;stroke-dasharray:none"
           x="24.483669"
           y="86.128799">PUSH</tspan></text>
    </g>
    <g
       id="g3919"
       transform="translate(94.061485,-27.219256)">
      <path
         sodipodi:type="star"
         style="fill:none;stroke:#000000;stroke-width:2;stroke-linecap:round;stroke-dasharray:none"
         id="path3913"
         inkscape:flatsided="false"
         sodipodi:sides="6"
         sodipodi:cx="46.51392"
         sodipodi:cy="77.867752"
         sodipodi:r1="50.585209"
         sodipodi:r2="54.392696"
         sodipodi:arg1="0.46648046"
         sodipodi:arg2="0.99007924"
         inkscape:rounded="0.3"
         inkscape:randomized="0"
         d="m 91.694439,100.61823 c -3.699346,7.34658 -8.462381,18.21294 -15.339402,22.72559 -6.87702,4.51266 -18.741342,4.55708 -26.953346,5.02665 -8.212004,0.46956 -20.004059,1.77783 -27.350646,-1.92152 C 14.704458,122.74961 8.7338305,112.49701 4.221172,105.61999 -0.29148665,98.742971 -7.3205059,89.184886 -7.7900725,80.972882 -8.2596391,72.760878 -2.3659445,62.463865 1.3334009,55.117278 5.0327463,47.770691 9.7957814,36.904339 16.672802,32.39168 c 6.877021,-4.512658 18.741343,-4.557076 26.953347,-5.026642 8.212004,-0.469567 20.004058,-1.777833 27.350646,1.921512 7.346587,3.699346 13.317214,13.951941 17.829873,20.828962 4.512658,6.877021 11.541682,16.435106 12.011242,24.64711 0.46957,8.212004 -5.424126,18.509017 -9.123471,25.855608 z"
         transform="matrix(0.72106294,0.03904205,-0.03904205,0.72106294,27.49676,20.365113)" />
      <text
         xml:space="preserve"
         style="font-size:27.4479px;fill:#000000;fill-opacity:1;stroke:#000000;stroke-width:0.683331;stroke-linecap:round;stroke-dasharray:none"
         x="24.483669"
         y="86.128799"
         id="text3917"><tspan
           sodipodi:role="line"
           id="tspan3915"
           style="font-style:normal;font-variant:normal;font-weight:normal;font-stretch:normal;font-family:'Courier New';-inkscape-font-specification:'Courier New';fill:#000000;fill-opacity:1;stroke-width:0.683331;stroke-dasharray:none"
           x="24.483669"
           y="86.128799">PUSH</tspan></text>
    </g>
    <g
       id="g3927"
       transform="translate(-5.857308,63.052206)">
      <path
         sodipodi:type="star"
         style="fill:none;stroke:#000000;stroke-width:2;stroke-linecap:round;stroke-dasharray:none"
         id="path3921"
         inkscape:flatsided="false"
         sodipodi:sides="6"
         sodipodi:cx="46.51392"
         sodipodi:cy="77.867752"
         sodipodi:r1="50.585209"
         sodipodi:r2="54.392696"
         sodipodi:arg1="0.46648046"
         sodipodi:arg2="0.99007924"
         inkscape:rounded="0.3"
         inkscape:randomized="0"
         d="m 91.694439,100.61823 c -3.699346,7.34658 -8.462381,18.21294 -15.339402,22.72559 -6.87702,4.51266 -18.741342,4.55708 -26.953346,5.02665 -8.212004,0.46956 -20.004059,1.77783 -27.350646,-1.92152 C 14.704458,122.74961 8.7338305,112.49701 4.221172,105.61999 -0.29148665,98.742971 -7.3205059,89.184886 -7.7900725,80.972882 -8.2596391,72.760878 -2.3659445,62.463865 1.3334009,55.117278 5.0327463,47.770691 9.7957814,36.904339 16.672802,32.39168 c 6.877021,-4.512658 18.741343,-4.557076 26.953347,-5.026642 8.212004,-0.469567 20.004058,-1.777833 27.350646,1.921512 7.346587,3.699346 13.317214,13.951941 17.829873,20.828962 4.512658,6.877021 11.541682,16.435106 12.011242,24.64711 0.46957,8.212004 -5.424126,18.509017 -9.123471,25.855608 z"
         transform="matrix(0.72106294,0.03904205,-0.03904205,0.72106294,27.49676,20.365113)" />
      <text
         xml:space="preserve"
         style="font-size:27.4479px;fill:#000000;fill-opacity:1;stroke:#000000;stroke-width:0.683331;stroke-linecap:round;stroke-dasharray:none"
         x="24.483669"
         y="86.128799"
         id="text3925"><tspan
           sodipodi:role="line"
           id="tspan3923"
           style="font-style:normal;font-variant:normal;font-weight:normal;font-stretch:normal;font-family:'Courier New';-inkscape-font-specification:'Courier New';fill:#000000;fill-opacity:1;stroke-width:0.683331;stroke-dasharray:none"
           x="24.483669"
           y="86.128799">PUSH</tspan></text>
    </g>
    <g
       id="g3935"
       transform="translate(94.061486,63.052208)">
      <path
         sodipodi:type="star"
         style="fill:none;stroke:#000000;stroke-width:2;stroke-linecap:round;stroke-dasharray:none"
         id="path3929"
         inkscape:flatsided="false"
         sodipodi:sides="6"
         sodipodi:cx="46.51392"
         sodipodi:cy="77.867752"
         sodipodi:r1="50.585209"
         sodipodi:r2="54.392696"
         sodipodi:arg1="0.46648046"
         sodipodi:arg2="0.99007924"
         inkscape:rounded="0.3"
         inkscape:randomized="0"
         d="m 91.694439,100.61823 c -3.699346,7.34658 -8.462381,18.21294 -15.339402,22.72559 -6.87702,4.51266 -18.741342,4.55708 -26.953346,5.02665 -8.212004,0.46956 -20.004059,1.77783 -27.350646,-1.92152 C 14.704458,122.74961 8.7338305,112.49701 4.221172,105.61999 -0.29148665,98.742971 -7.3205059,89.184886 -7.7900725,80.972882 -8.2596391,72.760878 -2.3659445,62.463865 1.3334009,55.117278 5.0327463,47.770691 9.7957814,36.904339 16.672802,32.39168 c 6.877021,-4.512658 18.741343,-4.557076 26.953347,-5.026642 8.212004,-0.469567 20.004058,-1.777833 27.350646,1.921512 7.346587,3.699346 13.317214,13.951941 17.829873,20.828962 4.512658,6.877021 11.541682,16.435106 12.011242,24.64711 0.46957,8.212004 -5.424126,18.509017 -9.123471,25.855608 z"
         transform="matrix(0.72106294,0.03904205,-0.03904205,0.72106294,27.49676,20.365113)" />
      <text
         xml:space="preserve"
         style="font-size:27.4479px;fill:#000000;fill-opacity:1;stroke:#000000;stroke-width:0.683331;stroke-linecap:round;stroke-dasharray:none"
         x="24.483669"
         y="86.128799"
         id="text3933"><tspan
           sodipodi:role="line"
           id="tspan3931"
           style="font-style:normal;font-variant:normal;font-weight:normal;font-stretch:normal;font-family:'Courier New';-inkscape-font-specification:'Courier New';fill:#000000;fill-opacity:1;stroke-width:0.683331;stroke-dasharray:none"
           x="24.483669"
           y="86.128799">PUSH</tspan></text>
    </g>
    <g
       id="g3943"
       transform="translate(-5.857308,159.72907)">
      <path
         sodipodi:type="star"
         style="fill:none;stroke:#000000;stroke-width:2;stroke-linecap:round;stroke-dasharray:none"
         id="path3937"
         inkscape:flatsided="false"
         sodipodi:sides="6"
         sodipodi:cx="46.51392"
         sodipodi:cy="77.867752"
         sodipodi:r1="50.585209"
         sodipodi:r2="54.392696"
         sodipodi:arg1="0.46648046"
         sodipodi:arg2="0.99007924"
         inkscape:rounded="0.3"
         inkscape:randomized="0"
         d="m 91.694439,100.61823 c -3.699346,7.34658 -8.462381,18.21294 -15.339402,22.72559 -6.87702,4.51266 -18.741342,4.55708 -26.953346,5.02665 -8.212004,0.46956 -20.004059,1.77783 -27.350646,-1.92152 C 14.704458,122.74961 8.7338305,112.49701 4.221172,105.61999 -0.29148665,98.742971 -7.3205059,89.184886 -7.7900725,80.972882 -8.2596391,72.760878 -2.3659445,62.463865 1.3334009,55.117278 5.0327463,47.770691 9.7957814,36.904339 16.672802,32.39168 c 6.877021,-4.512658 18.741343,-4.557076 26.953347,-5.026642 8.212004,-0.469567 20.004058,-1.777833 27.350646,1.921512 7.346587,3.699346 13.317214,13.951941 17.829873,20.828962 4.512658,6.877021 11.541682,16.435106 12.011242,24.64711 0.46957,8.212004 -5.424126,18.509017 -9.123471,25.855608 z"
         transform="matrix(0.72106294,0.03904205,-0.03904205,0.72106294,27.49676,20.365113)" />
      <text
         xml:space="preserve"
         style="font-size:27.4479px;fill:#000000;fill-opacity:1;stroke:#000000;stroke-width:0.683331;stroke-linecap:round;stroke-dasharray:none"
         x="24.483669"
         y="86.128799"
         id="text3941"><tspan
           sodipodi:role="line"
           id="tspan3939"
           style="font-style:normal;font-variant:normal;font-weight:normal;font-stretch:normal;font-family:'Courier New';-inkscape-font-specification:'Courier New';fill:#000000;fill-opacity:1;stroke-width:0.683331;stroke-dasharray:none"
           x="24.483669"
           y="86.128799">PUSH</tspan></text>
    </g>
    <g
       id="g3951"
       transform="translate(94.061486,159.72907)">
      <path
         sodipodi:type="star"
         style="fill:none;stroke:#000000;stroke-width:2;stroke-linecap:round;stroke-dasharray:none"
         id="path3945"
         inkscape:flatsided="false"
         sodipodi:sides="6"
         sodipodi:cx="46.51392"
         sodipodi:cy="77.867752"
         sodipodi:r1="50.585209"
         sodipodi:r2="54.392696"
         sodipodi:arg1="0.46648046"
         sodipodi:arg2="0.99007924"
         inkscape:rounded="0.3"
         inkscape:randomized="0"
         d="m 91.694439,100.61823 c -3.699346,7.34658 -8.462381,18.21294 -15.339402,22.72559 -6.87702,4.51266 -18.741342,4.55708 -26.953346,5.02665 -8.212004,0.46956 -20.004059,1.77783 -27.350646,-1.92152 C 14.704458,122.74961 8.7338305,112.49701 4.221172,105.61999 -0.29148665,98.742971 -7.3205059,89.184886 -7.7900725,80.972882 -8.2596391,72.760878 -2.3659445,62.463865 1.3334009,55.117278 5.0327463,47.770691 9.7957814,36.904339 16.672802,32.39168 c 6.877021,-4.512658 18.741343,-4.557076 26.953347,-5.026642 8.212004,-0.469567 20.004058,-1.777833 27.350646,1.921512 7.346587,3.699346 13.317214,13.951941 17.829873,20.828962 4.512658,6.877021 11.541682,16.435106 12.011242,24.64711 0.46957,8.212004 -5.424126,18.509017 -9.123471,25.855608 z"
         transform="matrix(0.72106294,0.03904205,-0.03904205,0.72106294,27.49676,20.365113)" />
      <text
         xml:space="preserve"
         style="font-size:27.4479px;fill:#000000;fill-opacity:1;stroke:#000000;stroke-width:0.683331;stroke-linecap:round;stroke-dasharray:none"
         x="24.483669"
         y="86.128799"
         id="text3949"><tspan
           sodipodi:role="line"
           id="tspan3947"
           style="font-style:normal;font-variant:normal;font-weight:normal;font-stretch:normal;font-family:'Courier New';-inkscape-font-specification:'Courier New';fill:#000000;fill-opacity:1;stroke-width:0.683331;stroke-dasharray:none"
           x="24.483669"
           y="86.128799">PUSH</tspan></text>
    </g>
  </g>
</svg>
